<svg xmlns="http://www.w3.org/2000/svg" xmlns:xlink="http://www.w3.org/1999/xlink" width="500" zoomAndPan="magnify" viewBox="0 0 375 374.999991" height="500" preserveAspectRatio="xMidYMid meet" version="1.0"><defs><g/></defs><path fill="#4eaee6" d="M 28.117188 139.484375 L 80.550781 128.003906 L 115.828125 167.667969 C 114.164062 174.636719 112.03125 188.09375 115.984375 204.085938 C 120.96875 224.195312 132.671875 236.78125 137.972656 241.769531 L 89.09375 263.382812 L 83.320312 316.980469 C 71.535156 307.242188 38.792969 277.714844 26.21875 226.964844 C 16.410156 187.460938 23.6875 154.683594 28.117188 139.484375 Z M 28.117188 139.484375 " fill-opacity="1" fill-rule="nonzero"/><path fill="#86ff2e" d="M 184.398438 21.917969 L 210.894531 68.625 L 183.527344 114.070312 C 176.410156 114.546875 162.964844 116.523438 148.808594 125.074219 C 131.089844 135.84375 122.550781 150.726562 119.386719 157.21875 C 107.679688 143.757812 95.976562 130.300781 84.269531 116.921875 L 31.4375 127.371094 C 37.132812 113.277344 55.640625 73.21875 100.324219 46.144531 C 135.125 25.003906 168.582031 22.234375 184.398438 21.917969 Z M 184.398438 21.917969 " fill-opacity="1" fill-rule="nonzero"/><path fill="#a34ee6" d="M 343.054688 133.703125 L 307.226562 173.683594 L 255.5 162.125 C 252.730469 155.554688 246.640625 143.363281 234.066406 132.675781 C 218.25 119.296875 201.402344 115.96875 194.285156 114.941406 C 203.300781 99.582031 212.316406 84.144531 221.332031 68.785156 L 194.601562 22.074219 C 209.785156 23.023438 253.601562 27.773438 293.464844 61.660156 C 324.46875 87.945312 337.753906 118.820312 343.054688 133.703125 Z M 343.054688 133.703125 " fill-opacity="1" fill-rule="nonzero"/><path fill="#d43d3d" d="M 284.921875 320.542969 L 236.125 298.140625 L 231.773438 245.253906 C 237.230469 240.664062 247.039062 231.242188 253.523438 216.039062 C 261.667969 196.960938 259.769531 179.859375 258.585938 172.734375 C 275.90625 176.773438 293.304688 180.808594 310.625 184.925781 L 347.402344 145.578125 C 350.960938 160.382812 359.425781 203.691406 339.019531 251.824219 C 323.121094 289.195312 297.578125 311.042969 284.921875 320.542969 Z M 284.921875 320.542969 " fill-opacity="1" fill-rule="nonzero"/><path fill="#eedd41" d="M 91.386719 322.046875 L 97.160156 268.609375 L 145.882812 247.789062 C 151.972656 251.585938 163.992188 257.84375 180.445312 259.1875 C 201.085938 260.851562 216.746094 253.726562 223.074219 250.320312 C 224.734375 268.054688 226.316406 285.867188 227.976562 303.601562 L 276.933594 326.085938 C 264.042969 334.160156 225.683594 355.855469 173.5625 351.65625 C 133.148438 348.414062 104.359375 331.074219 91.386719 322.046875 Z M 91.386719 322.046875 " fill-opacity="1" fill-rule="nonzero"/><g fill="#031f33" fill-opacity="1"><g transform="translate(134.185279, 204.971735)"><g><path d="M 39.734375 0 L 27.609375 0 L 25.890625 -4.859375 L 12.96875 -4.859375 L 11.203125 0 L -0.484375 0 L 14.046875 -34.4375 L 25.734375 -34.4375 Z M 19.546875 -23.09375 L 15.921875 -13.015625 L 23.09375 -13.015625 Z M 19.546875 -23.09375 "/></g></g></g><g fill="#031f33" fill-opacity="1"><g transform="translate(173.426735, 204.971735)"><g><path d="M 18.625 -34.4375 C 23.101562 -34.4375 26.570312 -33.363281 29.03125 -31.21875 C 31.488281 -29.070312 32.71875 -26.035156 32.71875 -22.109375 C 32.71875 -17.953125 31.488281 -14.71875 29.03125 -12.40625 C 26.570312 -10.09375 23.101562 -8.9375 18.625 -8.9375 L 13.859375 -8.9375 L 13.859375 0 L 2.453125 0 L 2.453125 -34.4375 Z M 18.03125 -17.59375 C 19.269531 -17.59375 20.222656 -17.957031 20.890625 -18.6875 C 21.566406 -19.425781 21.90625 -20.453125 21.90625 -21.765625 C 21.90625 -23.035156 21.566406 -24.023438 20.890625 -24.734375 C 20.222656 -25.441406 19.269531 -25.796875 18.03125 -25.796875 L 13.859375 -25.796875 L 13.859375 -17.59375 Z M 18.03125 -17.59375 "/></g></g></g><g fill="#031f33" fill-opacity="1"><g transform="translate(207.118402, 204.971735)"><g><path d="M 18.625 -34.4375 C 23.101562 -34.4375 26.570312 -33.363281 29.03125 -31.21875 C 31.488281 -29.070312 32.71875 -26.035156 32.71875 -22.109375 C 32.71875 -17.953125 31.488281 -14.71875 29.03125 -12.40625 C 26.570312 -10.09375 23.101562 -8.9375 18.625 -8.9375 L 13.859375 -8.9375 L 13.859375 0 L 2.453125 0 L 2.453125 -34.4375 Z M 18.03125 -17.59375 C 19.269531 -17.59375 20.222656 -17.957031 20.890625 -18.6875 C 21.566406 -19.425781 21.90625 -20.453125 21.90625 -21.765625 C 21.90625 -23.035156 21.566406 -24.023438 20.890625 -24.734375 C 20.222656 -25.441406 19.269531 -25.796875 18.03125 -25.796875 L 13.859375 -25.796875 L 13.859375 -17.59375 Z M 18.03125 -17.59375 "/></g></g></g></svg>